<svg width="900" height="1200" viewBox="0 0 900 1200" fill="none" xmlns="http://www.w3.org/2000/svg">
  <defs>
    <linearGradient id="bg" x1="168" y1="60" x2="736" y2="1122" gradientUnits="userSpaceOnUse">
      <stop stop-color="#1A245E"/>
      <stop offset="0.52" stop-color="#4E2E81"/>
      <stop offset="1" stop-color="#1A1734"/>
    </linearGradient>
  </defs>
  <rect width="900" height="1200" rx="72" fill="url(#bg)"/>
  <circle cx="680" cy="196" r="84" fill="#FFF3B0"/>
  <circle cx="712" cy="196" r="72" fill="#1A245E"/>
  <circle cx="450" cy="438" r="82" fill="#F4EEF8"/>
  <path d="M400 860C410 724 442 626 450 626C458 626 490 724 500 860" stroke="#E9D9FF" stroke-width="54" stroke-linecap="round"/>
  <path d="M344 742C390 700 426 680 450 680C474 680 510 700 556 742" stroke="#9F85F6" stroke-width="94" stroke-linecap="round"/>
  <path d="M316 764C244 796 186 846 138 918" stroke="#AA7CFF" stroke-width="18" stroke-linecap="round"/>
  <path d="M584 764C656 796 714 846 762 918" stroke="#AA7CFF" stroke-width="18" stroke-linecap="round"/>
  <circle cx="450" cy="734" r="160" stroke="#F2D8FF" stroke-width="12" stroke-dasharray="12 18"/>
  <circle cx="450" cy="734" r="108" stroke="#F2D8FF" stroke-width="8" stroke-dasharray="8 14"/>
  <path d="M450 318L464 354H502L472 378L484 414L450 392L416 414L428 378L398 354H436L450 318Z" fill="#FFF2A3"/>
  <circle cx="188" cy="194" r="8" fill="#FFF2A3"/>
  <circle cx="260" cy="118" r="6" fill="#FFF2A3"/>
  <circle cx="732" cy="466" r="8" fill="#FFF2A3"/>
  <circle cx="160" cy="588" r="6" fill="#FFF2A3"/>
  <circle cx="754" cy="666" r="7" fill="#FFF2A3"/>
  <path d="M72 1076C214 988 332 952 450 962C596 974 704 1028 900 998V1200H0V1122C20 1112 42 1098 72 1076Z" fill="#16142D"/>
</svg>
