<svg width="900" height="1200" viewBox="0 0 900 1200" fill="none" xmlns="http://www.w3.org/2000/svg">
  <defs>
    <linearGradient id="bg" x1="154" y1="82" x2="752" y2="1100" gradientUnits="userSpaceOnUse">
      <stop stop-color="#FFE8F4"/>
      <stop offset="0.52" stop-color="#F5B7CF"/>
      <stop offset="1" stop-color="#D88CA8"/>
    </linearGradient>
    <radialGradient id="halo" cx="0" cy="0" r="1" gradientUnits="userSpaceOnUse" gradientTransform="translate(454 380) rotate(90) scale(330 250)">
      <stop stop-color="#FFF9D0"/>
      <stop offset="1" stop-color="#FFF9D0" stop-opacity="0"/>
    </radialGradient>
  </defs>
  <rect width="900" height="1200" rx="72" fill="url(#bg)"/>
  <circle cx="454" cy="382" r="264" fill="url(#halo)"/>
  <circle cx="454" cy="402" r="82" fill="#FFF7EE"/>
  <path d="M452 496C426 574 412 666 420 740" stroke="#FFF4EE" stroke-width="34" stroke-linecap="round"/>
  <path d="M450 496C478 574 494 666 486 740" stroke="#FFF4EE" stroke-width="34" stroke-linecap="round"/>
  <path d="M360 610C314 548 282 464 282 384" stroke="#FFD5E3" stroke-width="26" stroke-linecap="round"/>
  <path d="M540 610C586 548 618 464 618 384" stroke="#FFD5E3" stroke-width="26" stroke-linecap="round"/>
  <path d="M340 748C388 696 426 676 452 676C478 676 516 696 564 748" stroke="#F9C4D8" stroke-width="82" stroke-linecap="round"/>
  <path d="M434 742C412 854 390 938 356 1082" stroke="#FFE7F0" stroke-width="18" stroke-linecap="round"/>
  <path d="M474 742C496 854 518 938 552 1082" stroke="#FFE7F0" stroke-width="18" stroke-linecap="round"/>
  <path d="M336 1072C388 1072 430 1064 468 1048" stroke="#FFF0F5" stroke-width="18" stroke-linecap="round"/>
  <path d="M436 1048C482 1066 532 1074 582 1074" stroke="#FFF0F5" stroke-width="18" stroke-linecap="round"/>
  <circle cx="182" cy="276" r="10" fill="#FFF5D0"/>
  <circle cx="250" cy="202" r="8" fill="#FFF5D0"/>
  <circle cx="720" cy="246" r="10" fill="#FFF5D0"/>
  <circle cx="792" cy="320" r="8" fill="#FFF5D0"/>
  <circle cx="672" cy="656" r="9" fill="#FFF5D0"/>
  <circle cx="214" cy="650" r="9" fill="#FFF5D0"/>
</svg>
