<svg width="900" height="1200" viewBox="0 0 900 1200" fill="none" xmlns="http://www.w3.org/2000/svg">
  <defs>
    <linearGradient id="bg" x1="144" y1="64" x2="748" y2="1112" gradientUnits="userSpaceOnUse">
      <stop stop-color="#DDEBC4"/>
      <stop offset="0.48" stop-color="#7DB074"/>
      <stop offset="1" stop-color="#294B3A"/>
    </linearGradient>
  </defs>
  <rect width="900" height="1200" rx="72" fill="url(#bg)"/>
  <path d="M94 988C184 920 286 888 404 892C550 898 668 946 900 1040V1200H0V1024C34 1016 62 1004 94 988Z" fill="#203A2B"/>
  <path d="M204 906L264 662L324 906H204Z" fill="#2E5A40"/>
  <path d="M274 500L344 662H204L274 500Z" fill="#49745C"/>
  <path d="M614 906L684 616L754 906H614Z" fill="#2E5A40"/>
  <path d="M694 430L788 616H600L694 430Z" fill="#49745C"/>
  <circle cx="450" cy="454" r="80" fill="#FFF6E8"/>
  <path d="M414 840C426 732 446 650 450 650C454 650 474 732 486 840" stroke="#FFF0D6" stroke-width="46" stroke-linecap="round"/>
  <path d="M358 736C404 694 432 678 450 678C468 678 496 694 542 736" stroke="#B8844F" stroke-width="82" stroke-linecap="round"/>
  <path d="M312 786L362 736" stroke="#704D2B" stroke-width="16" stroke-linecap="round"/>
  <path d="M588 786L538 736" stroke="#704D2B" stroke-width="16" stroke-linecap="round"/>
  <path d="M148 770C198 740 248 740 304 768" stroke="#F7E6B2" stroke-width="18" stroke-linecap="round"/>
  <path d="M628 742C682 714 734 714 790 744" stroke="#F7E6B2" stroke-width="18" stroke-linecap="round"/>
  <circle cx="194" cy="220" r="8" fill="#FFF6C8"/>
  <circle cx="760" cy="174" r="8" fill="#FFF6C8"/>
  <circle cx="712" cy="286" r="6" fill="#FFF6C8"/>
</svg>
